<svg version="1.1" id="Layer_1" xmlns="http://www.w3.org/2000/svg" xmlns:xlink="http://www.w3.org/1999/xlink" x="0px" y="0px"
	 width="100%" viewBox="0 0 1261 1222" enable-background="new 0 0 1261 1222" xml:space="preserve">
<path fill="#000000" opacity="1.000000" stroke="none" 
	d="
M588.000000,1223.000000 
	C392.404907,1223.000000 196.809784,1223.000000 1.000000,1223.000000 
	C1.000000,1033.640869 1.000000,844.281677 1.386191,654.559570 
	C2.168698,655.057129 2.817717,655.887512 2.923979,656.782471 
	C4.994020,674.215393 6.546427,691.723328 9.124510,709.079285 
	C13.225552,736.687988 19.494284,763.911987 28.463564,790.313049 
	C36.241280,813.206726 45.210045,835.743713 54.697018,857.992859 
	C61.654232,874.308960 69.508186,890.364685 78.403198,905.700867 
	C88.865776,923.739685 100.494240,941.144348 112.320137,958.340576 
	C130.395050,984.623230 151.024643,1008.894104 173.329025,1031.669556 
	C184.112076,1042.680298 195.488388,1053.145264 207.027634,1063.370361 
	C218.917267,1073.906006 230.947250,1084.359375 243.622025,1093.911743 
	C256.903687,1103.921387 270.851318,1113.084839 284.818634,1122.138672 
	C306.806274,1136.391235 329.700958,1149.017334 353.398163,1160.289062 
	C384.838562,1175.243774 417.112244,1187.991211 450.659851,1197.137817 
	C473.342926,1203.322266 496.325134,1208.711670 519.461914,1212.841309 
	C540.948669,1216.676514 562.820801,1218.345337 584.510010,1221.073120 
	C585.734741,1221.227173 586.839417,1222.335693 588.000000,1223.000000 
z"/>
<path fill="#000000" opacity="1.000000" stroke="none" 
	d="
M1262.000000,666.000000 
	C1262.000000,851.598022 1262.000000,1037.196045 1262.000000,1223.000000 
	C1066.974243,1223.000000 871.948364,1223.000000 676.556091,1222.611694 
	C677.051575,1221.828735 677.887573,1221.166382 678.779358,1221.079956 
	C689.834534,1220.009155 700.979919,1219.562622 711.941406,1217.897461 
	C732.904541,1214.712402 753.877258,1211.397095 774.639587,1207.130981 
	C804.247498,1201.047363 833.203308,1192.434204 861.311157,1181.264282 
	C879.343567,1174.098267 897.392944,1166.848755 914.884827,1158.486450 
	C930.682922,1150.933838 945.980164,1142.232544 961.045776,1133.276611 
	C976.378418,1124.161987 991.451294,1114.538452 1006.088989,1104.349243 
	C1017.990173,1096.064941 1029.340576,1086.925781 1040.460449,1077.599487 
	C1053.159668,1066.948364 1065.559326,1055.911865 1077.657349,1044.581665 
	C1086.019287,1036.750366 1093.896973,1028.359497 1101.547119,1019.820923 
	C1112.819458,1007.239563 1124.643677,994.991150 1134.528442,981.364624 
	C1150.968140,958.701965 1167.083252,935.670837 1181.403442,911.643677 
	C1194.013306,890.486389 1205.150146,868.251221 1214.789917,845.578979 
	C1224.759888,822.129883 1233.046021,797.854431 1240.439819,773.447083 
	C1250.748657,739.417725 1257.118164,704.481873 1260.095337,668.983521 
	C1260.182617,667.943115 1261.340942,666.992493 1262.000000,666.000000 
z"/>
<path fill="#000000" opacity="1.000000" stroke="none" 
	d="
M0.999990,569.000000 
	C1.000000,379.736725 1.000000,190.473450 1.000000,1.000000 
	C192.025787,1.000000 383.051636,1.000000 574.443298,1.383864 
	C573.949707,2.165883 573.119385,2.820319 572.226379,2.921266 
	C565.638245,3.665969 558.974915,3.929935 552.452271,5.035564 
	C528.435852,9.106483 504.222656,12.414686 480.546082,17.978388 
	C457.833252,23.315607 435.504456,30.528276 413.351562,37.946190 
	C385.289917,47.342659 358.343689,59.482365 332.152588,73.339012 
	C308.202820,86.009850 284.653778,99.361298 262.965790,115.601410 
	C242.290604,131.083084 221.822464,146.921005 202.189575,163.686966 
	C188.967194,174.978516 176.883926,187.725876 165.143280,200.599197 
	C151.073669,216.026184 137.420868,231.892563 124.468491,248.265564 
	C104.147812,273.952850 86.550514,301.536346 71.288094,330.512390 
	C58.971722,353.895294 47.871250,377.867523 38.659409,402.693237 
	C28.878963,429.051331 20.892603,455.915131 14.928861,483.381073 
	C9.009580,510.642303 4.527268,538.114441 2.900249,566.007080 
	C2.840104,567.038147 1.658800,568.003845 0.999990,569.000000 
z"/>
<path fill="#000000" opacity="1.000000" stroke="none" 
	d="
M688.000000,1.000002 
	C879.261780,1.000000 1070.523560,1.000000 1262.000000,1.000000 
	C1262.000000,186.025787 1262.000000,371.051636 1261.616577,556.442078 
	C1260.821777,555.614624 1260.177734,554.449585 1260.036011,553.226257 
	C1258.910034,543.512878 1258.302246,533.719910 1256.740234,524.080200 
	C1252.066162,495.238922 1246.011353,466.705658 1237.458862,438.710236 
	C1228.659912,409.908051 1217.855469,381.926178 1204.890869,354.756165 
	C1189.834229,323.202240 1172.119873,293.230804 1151.879639,264.722137 
	C1133.493774,238.825546 1113.132935,214.579742 1091.114380,191.734848 
	C1082.932373,183.245819 1074.282349,175.191727 1065.604736,167.201141 
	C1057.189697,159.452469 1048.916870,151.436295 1039.784790,144.602554 
	C1019.508789,129.429718 999.051147,114.454170 978.073547,100.277039 
	C956.884094,85.956688 934.307861,73.951317 911.164001,62.976364 
	C883.346436,49.785088 854.965393,38.057026 825.428589,29.411156 
	C804.904114,23.403311 784.274719,17.381865 763.311279,13.343405 
	C739.423828,8.741644 715.110413,6.356025 690.995789,2.911780 
	C689.927979,2.759268 688.995483,1.658875 688.000000,1.000002 
z"/>
<path fill="#393738" opacity="1.000000" stroke="none" 
	d="
M687.531372,1.000002 
	C688.995483,1.658875 689.927979,2.759268 690.995789,2.911780 
	C715.110413,6.356025 739.423828,8.741644 763.311279,13.343405 
	C784.274719,17.381865 804.904114,23.403311 825.428589,29.411156 
	C854.965393,38.057026 883.346436,49.785088 911.164001,62.976364 
	C934.307861,73.951317 956.884094,85.956688 978.073547,100.277039 
	C999.051147,114.454170 1019.508789,129.429718 1039.784790,144.602554 
	C1048.916870,151.436295 1057.189697,159.452469 1065.604736,167.201141 
	C1074.282349,175.191727 1082.932373,183.245819 1091.114380,191.734848 
	C1113.132935,214.579742 1133.493774,238.825546 1151.879639,264.722137 
	C1172.119873,293.230804 1189.834229,323.202240 1204.890869,354.756165 
	C1217.855469,381.926178 1228.659912,409.908051 1237.458862,438.710236 
	C1246.011353,466.705658 1252.066162,495.238922 1256.740234,524.080200 
	C1258.302246,533.719910 1258.910034,543.512878 1260.036011,553.226257 
	C1260.177734,554.449585 1260.821777,555.614624 1261.616577,556.903320 
	C1262.000000,593.020874 1262.000000,629.041809 1262.000000,665.531311 
	C1261.340942,666.992493 1260.182617,667.943115 1260.095337,668.983521 
	C1257.118164,704.481873 1250.748657,739.417725 1240.439819,773.447083 
	C1233.046021,797.854431 1224.759888,822.129883 1214.789917,845.578979 
	C1205.150146,868.251221 1194.013306,890.486389 1181.403442,911.643677 
	C1167.083252,935.670837 1150.968140,958.701965 1134.528442,981.364624 
	C1124.643677,994.991150 1112.819458,1007.239563 1101.547119,1019.820923 
	C1093.896973,1028.359497 1086.019287,1036.750366 1077.657349,1044.581665 
	C1065.559326,1055.911865 1053.159668,1066.948364 1040.460449,1077.599487 
	C1029.340576,1086.925781 1017.990173,1096.064941 1006.088989,1104.349243 
	C991.451294,1114.538452 976.378418,1124.161987 961.045776,1133.276611 
	C945.980164,1142.232544 930.682922,1150.933838 914.884827,1158.486450 
	C897.392944,1166.848755 879.343567,1174.098267 861.311157,1181.264282 
	C833.203308,1192.434204 804.247498,1201.047363 774.639587,1207.130981 
	C753.877258,1211.397095 732.904541,1214.712402 711.941406,1217.897461 
	C700.979919,1219.562622 689.834534,1220.009155 678.779358,1221.079956 
	C677.887573,1221.166382 677.051575,1221.828735 676.094849,1222.611694 
	C646.979126,1223.000000 617.958191,1223.000000 588.468628,1223.000000 
	C586.839417,1222.335693 585.734741,1221.227173 584.510010,1221.073120 
	C562.820801,1218.345337 540.948669,1216.676514 519.461914,1212.841309 
	C496.325134,1208.711670 473.342926,1203.322266 450.659851,1197.137817 
	C417.112244,1187.991211 384.838562,1175.243774 353.398163,1160.289062 
	C329.700958,1149.017334 306.806274,1136.391235 284.818634,1122.138672 
	C270.851318,1113.084839 256.903687,1103.921387 243.622025,1093.911743 
	C230.947250,1084.359375 218.917267,1073.906006 207.027634,1063.370361 
	C195.488388,1053.145264 184.112076,1042.680298 173.329025,1031.669556 
	C151.024643,1008.894104 130.395050,984.623230 112.320137,958.340576 
	C100.494240,941.144348 88.865776,923.739685 78.403198,905.700867 
	C69.508186,890.364685 61.654232,874.308960 54.697018,857.992859 
	C45.210045,835.743713 36.241280,813.206726 28.463564,790.313049 
	C19.494284,763.911987 13.225552,736.687988 9.124510,709.079285 
	C6.546427,691.723328 4.994020,674.215393 2.923979,656.782471 
	C2.817717,655.887512 2.168698,655.057129 1.386191,654.098328 
	C1.000000,625.979126 1.000000,597.958191 0.999990,569.468628 
	C1.658800,568.003845 2.840104,567.038147 2.900249,566.007080 
	C4.527268,538.114441 9.009580,510.642303 14.928861,483.381073 
	C20.892603,455.915131 28.878963,429.051331 38.659409,402.693237 
	C47.871250,377.867523 58.971722,353.895294 71.288094,330.512390 
	C86.550514,301.536346 104.147812,273.952850 124.468491,248.265564 
	C137.420868,231.892563 151.073669,216.026184 165.143280,200.599197 
	C176.883926,187.725876 188.967194,174.978516 202.189575,163.686966 
	C221.822464,146.921005 242.290604,131.083084 262.965790,115.601410 
	C284.653778,99.361298 308.202820,86.009850 332.152588,73.339012 
	C358.343689,59.482365 385.289917,47.342659 413.351562,37.946190 
	C435.504456,30.528276 457.833252,23.315607 480.546082,17.978388 
	C504.222656,12.414686 528.435852,9.106483 552.452271,5.035564 
	C558.974915,3.929935 565.638245,3.665969 572.226379,2.921266 
	C573.119385,2.820319 573.949707,2.165883 574.904541,1.383864 
	C612.354248,1.000000 649.708435,1.000000 687.531372,1.000002 
M955.745850,89.743317 
	C934.382263,78.844803 913.446838,66.986885 891.575134,57.227066 
	C825.102539,27.564863 755.375183,10.377642 682.755127,4.826771 
	C643.102783,1.795854 603.511597,2.187994 563.988953,6.293590 
	C513.915283,11.495216 465.061035,22.352247 417.587891,39.197029 
	C322.634521,72.889099 240.079559,125.801666 170.413330,198.705765 
	C123.469666,247.831238 85.777260,303.235962 57.450462,364.983734 
	C24.950945,435.827332 7.331463,510.301178 4.213785,588.114380 
	C2.865261,621.771851 4.415641,655.371643 8.826858,688.841675 
	C17.217018,752.501953 35.400295,813.193909 63.518436,870.866394 
	C95.765297,937.007263 138.770599,995.294373 192.115585,1046.008179 
	C234.428543,1086.234131 281.395081,1119.932129 333.081848,1146.994873 
	C410.859924,1187.718994 493.564941,1211.383789 581.125305,1218.164673 
	C620.773315,1221.235229 660.368164,1220.824707 699.892456,1216.719849 
	C749.965942,1211.519653 798.801514,1200.620728 846.302795,1183.854126 
	C934.739502,1152.638428 1012.542175,1104.277100 1079.548462,1038.697876 
	C1112.660034,1006.291382 1141.684326,970.481384 1166.570435,931.357605 
	C1224.015747,841.047241 1255.141479,742.379211 1259.769531,635.504028 
	C1261.743164,589.922913 1258.483276,544.577576 1249.675659,499.750885 
	C1226.269653,380.625000 1171.270020,278.099396 1086.621460,191.397095 
	C1047.878174,151.713913 1004.263611,118.121132 955.745850,89.743317 
z"/>
<path fill="#52658C" opacity="1.000000" stroke="none" 
	d="
M956.062866,89.923538 
	C1004.263611,118.121132 1047.878174,151.713913 1086.621460,191.397095 
	C1171.270020,278.099396 1226.269653,380.625000 1249.675659,499.750885 
	C1258.483276,544.577576 1261.743164,589.922913 1259.769531,635.504028 
	C1255.141479,742.379211 1224.015747,841.047241 1166.570435,931.357605 
	C1141.684326,970.481384 1112.660034,1006.291382 1079.548462,1038.697876 
	C1012.542175,1104.277100 934.739502,1152.638428 846.302795,1183.854126 
	C798.801514,1200.620728 749.965942,1211.519653 699.892456,1216.719849 
	C660.368164,1220.824707 620.773315,1221.235229 581.125305,1218.164673 
	C493.564941,1211.383789 410.859924,1187.718994 333.081848,1146.994873 
	C281.395081,1119.932129 234.428543,1086.234131 192.115585,1046.008179 
	C138.770599,995.294373 95.765297,937.007263 63.518436,870.866394 
	C35.400295,813.193909 17.217018,752.501953 8.826858,688.841675 
	C4.415641,655.371643 2.865261,621.771851 4.213785,588.114380 
	C7.331463,510.301178 24.950945,435.827332 57.450462,364.983734 
	C85.777260,303.235962 123.469666,247.831238 170.413330,198.705765 
	C240.079559,125.801666 322.634521,72.889099 417.587891,39.197029 
	C465.061035,22.352247 513.915283,11.495216 563.988953,6.293590 
	C603.511597,2.187994 643.102783,1.795854 682.755127,4.826771 
	C755.375183,10.377642 825.102539,27.564863 891.575134,57.227066 
	C913.446838,66.986885 934.382263,78.844803 956.062866,89.923538 
M813.043335,740.922729 
	C813.043335,740.922729 813.090332,740.890137 812.416931,740.380493 
	C810.931641,740.252869 809.446411,740.013672 807.961121,740.013428 
	C694.757141,739.995972 581.553101,739.992798 468.349152,740.039856 
	C466.618591,740.040588 464.888306,740.681091 463.060303,741.952332 
	C463.040222,745.451660 463.004822,748.951050 463.003113,752.450378 
	C462.999359,760.068970 463.006409,760.076721 470.518799,760.076843 
	C582.507568,760.078430 694.496399,760.079224 806.485168,760.068176 
	C808.647400,760.067993 810.809631,759.922180 813.506042,759.235596 
	C813.370667,753.130310 813.235291,747.025024 813.043335,740.922729 
M516.022644,406.944550 
	C516.022644,510.509796 516.022644,614.075073 516.022644,717.708496 
	C567.832764,717.708496 619.057861,717.708496 670.867798,717.708496 
	C670.867798,682.698059 670.867798,647.974915 670.867798,613.009399 
	C681.147705,613.009399 690.919189,613.770630 700.520508,612.817566 
	C712.636169,611.614929 724.981995,610.252136 736.583801,606.794922 
	C779.315918,594.061340 806.791809,566.818665 811.684204,521.154236 
	C813.265991,506.390564 812.969482,491.264648 808.431091,476.317902 
	C800.576233,450.448425 785.134827,431.483398 761.495544,418.911072 
	C744.275208,409.752655 725.408936,407.112976 706.356506,406.081726 
	C689.927612,405.192444 673.440063,405.181122 656.977783,405.154968 
	C610.329224,405.080780 563.680359,405.197968 516.526794,405.161926 
	C516.404053,405.447388 516.281372,405.732849 516.022644,406.944550 
z"/>
<path fill="#FEFEFE" opacity="1.000000" stroke="none" 
	d="
M517.031616,405.239807 
	C563.680359,405.197968 610.329224,405.080780 656.977783,405.154968 
	C673.440063,405.181122 689.927612,405.192444 706.356506,406.081726 
	C725.408936,407.112976 744.275208,409.752655 761.495544,418.911072 
	C785.134827,431.483398 800.576233,450.448425 808.431091,476.317902 
	C812.969482,491.264648 813.265991,506.390564 811.684204,521.154236 
	C806.791809,566.818665 779.315918,594.061340 736.583801,606.794922 
	C724.981995,610.252136 712.636169,611.614929 700.520508,612.817566 
	C690.919189,613.770630 681.147705,613.009399 670.867798,613.009399 
	C670.867798,647.974915 670.867798,682.698059 670.867798,717.708496 
	C619.057861,717.708496 567.832764,717.708496 516.022644,717.708496 
	C516.022644,614.075073 516.022644,510.509796 516.257690,406.376526 
	C516.715881,405.660187 516.895508,405.470612 517.031616,405.239807 
M656.287048,482.915100 
	C666.430603,483.593964 669.470154,486.457123 670.533569,496.526886 
	C670.777832,498.839203 670.770264,501.184753 670.771545,503.515076 
	C670.786499,532.014465 670.781433,560.513916 670.781616,589.013306 
	C670.781616,590.971497 670.781616,592.929749 670.781616,595.089172 
	C673.301147,595.376953 675.284851,595.869263 677.243347,595.783691 
	C689.166931,595.262817 701.126526,595.040710 712.993591,593.888855 
	C726.598877,592.568237 739.553223,588.490784 751.546448,581.828796 
	C771.492798,570.748840 784.324646,554.325745 789.150452,531.747620 
	C791.869995,519.023865 792.582642,506.412292 791.159607,493.403107 
	C788.894104,472.692963 780.709839,455.551453 764.154968,442.631042 
	C754.154785,434.826324 742.772461,429.487885 730.515076,427.251556 
	C716.101929,424.621887 701.380920,422.538635 686.767090,422.358704 
	C638.442078,421.763794 590.105164,422.132843 541.772827,422.131958 
	C540.009033,422.131927 538.245239,422.131958 536.458374,422.131958 
	C536.458374,515.414429 536.458374,607.973694 536.458374,700.623718 
	C574.582581,700.623718 612.336487,700.623718 650.766235,700.623718 
	C650.766235,627.975037 650.766235,555.600830 650.766235,482.898865 
	C652.749329,482.898865 654.057434,482.898865 656.287048,482.915100 
z"/>
<path fill="#0098DA" opacity="1.000000" stroke="none" 
	d="
M812.971863,759.844360 
	C810.809631,759.922180 808.647400,760.067993 806.485168,760.068176 
	C694.496399,760.079224 582.507568,760.078430 470.518799,760.076843 
	C463.006409,760.076721 462.999359,760.068970 463.003113,752.450378 
	C463.004822,748.951050 463.040222,745.451660 463.565826,741.482483 
	C574.752747,741.007568 685.434082,741.004150 796.115479,740.993042 
	C801.773743,740.992493 807.432068,740.925964 813.090332,740.890137 
	C813.090332,740.890137 813.043335,740.922729 813.043335,741.394409 
	C813.019531,747.858887 812.995728,753.851624 812.971863,759.844360 
z"/>
<path fill="#008CC8" opacity="1.000000" stroke="none" 
	d="
M812.753662,740.635315 
	C807.432068,740.925964 801.773743,740.992493 796.115479,740.993042 
	C685.434082,741.004150 574.752747,741.007568 463.614624,741.017822 
	C464.888306,740.681091 466.618591,740.040588 468.349152,740.039856 
	C581.553101,739.992798 694.757141,739.995972 807.961121,740.013428 
	C809.446411,740.013672 810.931641,740.252869 812.753662,740.635315 
z"/>
<path fill="#008CC8" opacity="1.000000" stroke="none" 
	d="
M813.238953,759.539978 
	C812.995728,753.851624 813.019531,747.858887 813.071655,741.392944 
	C813.235291,747.025024 813.370667,753.130310 813.238953,759.539978 
z"/>
<path fill="#DCDFEA" opacity="1.000000" stroke="none" 
	d="
M516.779175,405.200867 
	C516.895508,405.470612 516.715881,405.660187 516.325684,405.913391 
	C516.281372,405.732849 516.404053,405.447388 516.779175,405.200867 
z"/>
<path fill="#52658C" opacity="1.000000" stroke="none" 
	d="
M655.826294,482.906982 
	C654.057434,482.898865 652.749329,482.898865 650.766235,482.898865 
	C650.766235,555.600830 650.766235,627.975037 650.766235,700.623718 
	C612.336487,700.623718 574.582581,700.623718 536.458374,700.623718 
	C536.458374,607.973694 536.458374,515.414429 536.458374,422.131958 
	C538.245239,422.131958 540.009033,422.131927 541.772827,422.131958 
	C590.105164,422.132843 638.442078,421.763794 686.767090,422.358704 
	C701.380920,422.538635 716.101929,424.621887 730.515076,427.251556 
	C742.772461,429.487885 754.154785,434.826324 764.154968,442.631042 
	C780.709839,455.551453 788.894104,472.692963 791.159607,493.403107 
	C792.582642,506.412292 791.869995,519.023865 789.150452,531.747620 
	C784.324646,554.325745 771.492798,570.748840 751.546448,581.828796 
	C739.553223,588.490784 726.598877,592.568237 712.993591,593.888855 
	C701.126526,595.040710 689.166931,595.262817 677.243347,595.783691 
	C675.284851,595.869263 673.301147,595.376953 670.781616,595.089172 
	C670.781616,592.929749 670.781616,590.971497 670.781616,589.013306 
	C670.781433,560.513916 670.786499,532.014465 670.771545,503.515076 
	C670.770264,501.184753 670.777832,498.839203 670.533569,496.526886 
	C669.470154,486.457123 666.430603,483.593964 655.826294,482.906982 
z"/>
</svg>