<svg version="1.1" id="Layer_1" xmlns="http://www.w3.org/2000/svg" xmlns:xlink="http://www.w3.org/1999/xlink" x="0px" y="0px"
	 width="100%" viewBox="0 0 1261 1222" enable-background="new 0 0 1261 1222" xml:space="preserve">
<path fill="#FEFEFE" opacity="1.000000" stroke="none" 
	d="
M606.000000,1223.000000 
	C404.404877,1223.000000 202.809738,1223.000000 1.000000,1223.000000 
	C1.000000,1027.640869 1.000000,832.281677 1.398023,636.645264 
	C2.195413,643.117371 2.404639,649.884460 3.035050,656.612122 
	C4.224991,669.310974 5.273420,682.042114 7.085708,694.658630 
	C9.369763,710.559448 11.572674,726.541565 15.198738,742.166443 
	C24.589542,782.631897 37.325325,822.067200 55.022198,859.729736 
	C68.876480,889.214600 84.591461,917.638916 102.796700,944.768311 
	C121.963966,973.331360 143.385803,1000.011719 166.811050,1025.054565 
	C179.003662,1038.089355 192.304520,1050.147339 205.675705,1062.002563 
	C218.508850,1073.380859 231.858994,1084.208984 245.371887,1094.780518 
	C273.649475,1116.902954 304.150299,1135.677368 336.134918,1151.827148 
	C356.430206,1162.074707 377.269684,1171.472656 398.509735,1179.558228 
	C420.919220,1188.088989 443.879822,1195.380615 466.990906,1201.806152 
	C495.288910,1209.673950 524.124390,1215.397095 553.467224,1218.001343 
	C569.645691,1219.437256 585.842896,1220.660645 602.027161,1222.033081 
	C603.369141,1222.146973 604.676575,1222.668091 606.000000,1223.000000 
z"/>
<path fill="#FEFEFE" opacity="1.000000" stroke="none" 
	d="
M1262.000000,654.000000 
	C1262.000000,843.598328 1262.000000,1033.196655 1262.000000,1223.000000 
	C1060.974243,1223.000000 859.948364,1223.000000 658.645386,1222.601807 
	C664.028137,1222.133301 669.726501,1222.459473 675.340515,1221.915283 
	C690.144409,1220.480225 704.932007,1218.827148 719.687073,1216.953857 
	C731.305969,1215.478760 742.978455,1214.081055 754.426880,1211.690063 
	C770.868225,1208.256226 787.343384,1204.669800 803.413208,1199.846191 
	C826.705688,1192.854614 850.049438,1185.709351 872.627563,1176.754395 
	C894.811768,1167.955566 916.338318,1157.348389 937.638367,1146.521484 
	C952.750183,1138.840088 967.250061,1129.859863 981.588928,1120.774048 
	C1005.536133,1105.600098 1028.514282,1088.984375 1049.478638,1069.865601 
	C1066.786255,1054.081665 1083.597168,1037.730835 1100.186279,1021.187988 
	C1117.840332,1003.583069 1133.086548,983.923340 1147.820923,963.821472 
	C1164.423584,941.170654 1179.758179,917.706177 1192.475952,892.719727 
	C1203.246948,871.558044 1213.378052,849.979797 1222.220703,827.954895 
	C1229.952881,808.695984 1236.085815,788.728760 1241.856323,768.765503 
	C1248.925171,744.311401 1254.208984,719.399597 1257.043457,694.039429 
	C1258.386963,682.019348 1259.668091,669.992249 1261.028687,657.974121 
	C1261.180908,656.630005 1261.668091,655.323792 1262.000000,654.000000 
z"/>
<path fill="#FEFEFE" opacity="1.000000" stroke="none" 
	d="
M0.999991,587.000000 
	C1.000000,391.737122 1.000000,196.474258 1.000000,1.000000 
	C196.025787,1.000000 391.051636,1.000000 586.357178,1.396406 
	C578.463440,2.525252 570.259460,3.014963 562.122925,4.040313 
	C544.826477,6.219980 527.323730,7.572416 510.345734,11.279891 
	C484.501892,16.923399 458.811829,23.538801 433.455292,31.082079 
	C397.468018,41.787884 362.964417,56.407589 330.043579,74.540833 
	C314.178009,83.279770 298.262024,92.010429 282.980835,101.709068 
	C254.325745,119.895805 227.453766,140.585419 202.324860,163.382111 
	C189.221863,175.269012 177.138000,188.283478 164.661972,200.856293 
	C146.735565,218.921783 131.135880,238.909515 116.040184,259.351410 
	C99.741158,281.422760 85.068077,304.531830 72.163475,328.681305 
	C52.627399,365.240723 36.522285,403.313965 25.063951,443.216217 
	C16.332352,473.622864 9.219860,504.410583 6.045692,535.957275 
	C4.402841,552.284851 3.333980,568.670044 1.955599,585.024963 
	C1.898259,585.705322 1.330138,586.342651 0.999991,587.000000 
z"/>
<path fill="#FEFEFE" opacity="1.000000" stroke="none" 
	d="
M677.000000,1.000001 
	C871.928528,1.000000 1066.857056,1.000000 1262.000000,1.000000 
	C1262.000000,190.025787 1262.000000,379.051636 1261.603638,568.357178 
	C1259.808105,555.124084 1258.819458,541.552734 1256.902832,528.113708 
	C1254.635498,512.214172 1252.315063,496.254730 1248.677124,480.633453 
	C1242.714355,455.028931 1235.382324,429.798767 1226.180420,405.084656 
	C1215.773560,377.134552 1203.293945,350.226562 1189.043823,324.071106 
	C1174.280884,296.974640 1157.322998,271.378510 1138.565674,246.861938 
	C1123.270020,226.870056 1107.118042,207.650085 1089.258301,189.990616 
	C1074.495483,175.393250 1059.120850,161.337738 1043.224487,147.985992 
	C1028.417603,135.549225 1013.010010,123.706085 997.049683,112.797195 
	C980.382751,101.405365 963.190247,90.602074 945.411377,81.062630 
	C922.787354,68.923492 899.777893,57.276875 876.122803,47.352879 
	C855.077637,38.523800 833.090210,31.789610 811.207397,25.158020 
	C795.005615,20.248074 778.395081,16.546684 761.798218,13.123457 
	C747.332214,10.139745 732.665283,8.046890 718.022522,6.029217 
	C705.720032,4.334004 693.322510,3.331467 680.972778,1.970553 
	C679.629150,1.822494 678.323364,1.331780 677.000000,1.000001 
z"/>
<path fill="#393638" opacity="1.000000" stroke="none" 
	d="
M676.531372,1.000001 
	C678.323364,1.331780 679.629150,1.822494 680.972778,1.970553 
	C693.322510,3.331467 705.720032,4.334004 718.022522,6.029217 
	C732.665283,8.046890 747.332214,10.139745 761.798218,13.123457 
	C778.395081,16.546684 795.005615,20.248074 811.207397,25.158020 
	C833.090210,31.789610 855.077637,38.523800 876.122803,47.352879 
	C899.777893,57.276875 922.787354,68.923492 945.411377,81.062630 
	C963.190247,90.602074 980.382751,101.405365 997.049683,112.797195 
	C1013.010010,123.706085 1028.417603,135.549225 1043.224487,147.985992 
	C1059.120850,161.337738 1074.495483,175.393250 1089.258301,189.990616 
	C1107.118042,207.650085 1123.270020,226.870056 1138.565674,246.861938 
	C1157.322998,271.378510 1174.280884,296.974640 1189.043823,324.071106 
	C1203.293945,350.226562 1215.773560,377.134552 1226.180420,405.084656 
	C1235.382324,429.798767 1242.714355,455.028931 1248.677124,480.633453 
	C1252.315063,496.254730 1254.635498,512.214172 1256.902832,528.113708 
	C1258.819458,541.552734 1259.808105,555.124084 1261.603638,568.818420 
	C1262.000000,597.020874 1262.000000,625.041809 1262.000000,653.531372 
	C1261.668091,655.323792 1261.180908,656.630005 1261.028687,657.974121 
	C1259.668091,669.992249 1258.386963,682.019348 1257.043457,694.039429 
	C1254.208984,719.399597 1248.925171,744.311401 1241.856323,768.765503 
	C1236.085815,788.728760 1229.952881,808.695984 1222.220703,827.954895 
	C1213.378052,849.979797 1203.246948,871.558044 1192.475952,892.719727 
	C1179.758179,917.706177 1164.423584,941.170654 1147.820923,963.821472 
	C1133.086548,983.923340 1117.840332,1003.583069 1100.186279,1021.187988 
	C1083.597168,1037.730835 1066.786255,1054.081665 1049.478638,1069.865601 
	C1028.514282,1088.984375 1005.536133,1105.600098 981.588928,1120.774048 
	C967.250061,1129.859863 952.750183,1138.840088 937.638367,1146.521484 
	C916.338318,1157.348389 894.811768,1167.955566 872.627563,1176.754395 
	C850.049438,1185.709351 826.705688,1192.854614 803.413208,1199.846191 
	C787.343384,1204.669800 770.868225,1208.256226 754.426880,1211.690063 
	C742.978455,1214.081055 731.305969,1215.478760 719.687073,1216.953857 
	C704.932007,1218.827148 690.144409,1220.480225 675.340515,1221.915283 
	C669.726501,1222.459473 664.028137,1222.133301 658.184082,1222.601807 
	C640.979126,1223.000000 623.958191,1223.000000 606.468628,1223.000000 
	C604.676575,1222.668091 603.369141,1222.146973 602.027161,1222.033081 
	C585.842896,1220.660645 569.645691,1219.437256 553.467224,1218.001343 
	C524.124390,1215.397095 495.288910,1209.673950 466.990906,1201.806152 
	C443.879822,1195.380615 420.919220,1188.088989 398.509735,1179.558228 
	C377.269684,1171.472656 356.430206,1162.074707 336.134918,1151.827148 
	C304.150299,1135.677368 273.649475,1116.902954 245.371887,1094.780518 
	C231.858994,1084.208984 218.508850,1073.380859 205.675705,1062.002563 
	C192.304520,1050.147339 179.003662,1038.089355 166.811050,1025.054565 
	C143.385803,1000.011719 121.963966,973.331360 102.796700,944.768311 
	C84.591461,917.638916 68.876480,889.214600 55.022198,859.729736 
	C37.325325,822.067200 24.589542,782.631897 15.198738,742.166443 
	C11.572674,726.541565 9.369763,710.559448 7.085708,694.658630 
	C5.273420,682.042114 4.224991,669.310974 3.035050,656.612122 
	C2.404639,649.884460 2.195413,643.117371 1.398023,636.184021 
	C1.000000,619.979126 1.000000,603.958191 0.999991,587.468628 
	C1.330138,586.342651 1.898259,585.705322 1.955599,585.024963 
	C3.333980,568.670044 4.402841,552.284851 6.045692,535.957275 
	C9.219860,504.410583 16.332352,473.622864 25.063951,443.216217 
	C36.522285,403.313965 52.627399,365.240723 72.163475,328.681305 
	C85.068077,304.531830 99.741158,281.422760 116.040184,259.351410 
	C131.135880,238.909515 146.735565,218.921783 164.661972,200.856293 
	C177.138000,188.283478 189.221863,175.269012 202.324860,163.382111 
	C227.453766,140.585419 254.325745,119.895805 282.980835,101.709068 
	C298.262024,92.010429 314.178009,83.279770 330.043579,74.540833 
	C362.964417,56.407589 397.468018,41.787884 433.455292,31.082079 
	C458.811829,23.538801 484.501892,16.923399 510.345734,11.279891 
	C527.323730,7.572416 544.826477,6.219980 562.122925,4.040313 
	C570.259460,3.014963 578.463440,2.525252 586.818481,1.396406 
	C616.687561,1.000000 646.375122,1.000000 676.531372,1.000001 
M1153.041992,271.449860 
	C1129.122681,237.288239 1102.636108,205.294235 1071.725098,177.216965 
	C1055.122437,162.136444 1038.359009,147.118622 1020.634155,133.409271 
	C966.079651,91.213745 905.807373,59.392456 840.564026,37.095154 
	C805.629700,25.156092 769.965454,15.834235 733.333191,10.962513 
	C708.696167,7.686050 683.942810,4.365309 659.151733,3.421556 
	C633.439148,2.442727 607.584961,3.701411 581.856262,5.128223 
	C563.349121,6.154556 544.830200,8.341555 526.522644,11.290590 
	C494.048645,16.521597 462.112427,24.291430 430.840454,34.601997 
	C387.551086,48.874809 346.153625,67.374443 306.893951,90.560287 
	C255.887344,120.683624 209.800400,156.958221 169.103973,200.124924 
	C141.968185,228.907898 117.685608,259.822479 96.453362,293.170135 
	C71.862816,331.792328 51.981583,372.702942 36.909065,415.932068 
	C24.251633,452.234558 14.616067,489.321259 9.985325,527.524536 
	C7.372859,549.077148 5.249688,570.743286 4.250639,592.420227 
	C3.440137,610.006165 4.319435,627.697571 5.042816,645.317810 
	C5.593734,658.737183 6.083547,672.288879 8.352305,685.480469 
	C12.900156,711.923645 17.582642,738.427979 24.112776,764.429077 
	C39.270592,824.783142 64.804077,880.791016 98.500725,933.039490 
	C125.294472,974.584595 156.189163,1012.832642 192.741730,1046.233521 
	C208.928864,1061.025024 225.417145,1075.592163 242.717422,1089.040771 
	C297.584015,1131.692261 358.296875,1163.698486 424.054596,1186.081421 
	C465.336914,1200.133545 507.594482,1210.201660 550.975830,1214.959717 
	C571.578979,1217.219604 592.281372,1219.077271 612.984680,1219.797852 
	C640.408875,1220.752075 667.886536,1220.412964 695.194824,1216.997803 
	C713.280273,1214.736206 731.442932,1212.806396 749.364319,1209.579834 
	C783.726074,1203.393311 817.367432,1194.330200 850.261108,1182.481689 
	C893.804565,1166.797119 935.230835,1146.772217 974.299622,1122.022461 
	C1024.044312,1090.509521 1069.197144,1053.380371 1107.665405,1008.666565 
	C1124.443115,989.164917 1140.334717,968.804932 1155.391968,947.942200 
	C1176.677246,918.450073 1193.947388,886.499451 1208.766235,853.292297 
	C1220.090576,827.916138 1229.614136,801.862671 1237.224609,775.099243 
	C1244.678589,748.886658 1250.850586,722.407104 1254.068726,695.343811 
	C1256.456543,675.264038 1259.153320,655.114868 1259.660034,634.945068 
	C1260.265015,610.870422 1259.408813,586.692505 1257.814697,562.650269 
	C1256.534058,543.337769 1254.047852,524.010254 1250.620972,504.954742 
	C1243.222656,463.815399 1231.361694,423.925476 1215.341187,385.236298 
	C1198.778564,345.237671 1178.083496,307.578522 1153.041992,271.449860 
z"/>
<path fill="#52658C" opacity="1.000000" stroke="none" 
	d="
M1153.277100,271.722015 
	C1178.083496,307.578522 1198.778564,345.237671 1215.341187,385.236298 
	C1231.361694,423.925476 1243.222656,463.815399 1250.620972,504.954742 
	C1254.047852,524.010254 1256.534058,543.337769 1257.814697,562.650269 
	C1259.408813,586.692505 1260.265015,610.870422 1259.660034,634.945068 
	C1259.153320,655.114868 1256.456543,675.264038 1254.068726,695.343811 
	C1250.850586,722.407104 1244.678589,748.886658 1237.224609,775.099243 
	C1229.614136,801.862671 1220.090576,827.916138 1208.766235,853.292297 
	C1193.947388,886.499451 1176.677246,918.450073 1155.391968,947.942200 
	C1140.334717,968.804932 1124.443115,989.164917 1107.665405,1008.666565 
	C1069.197144,1053.380371 1024.044312,1090.509521 974.299622,1122.022461 
	C935.230835,1146.772217 893.804565,1166.797119 850.261108,1182.481689 
	C817.367432,1194.330200 783.726074,1203.393311 749.364319,1209.579834 
	C731.442932,1212.806396 713.280273,1214.736206 695.194824,1216.997803 
	C667.886536,1220.412964 640.408875,1220.752075 612.984680,1219.797852 
	C592.281372,1219.077271 571.578979,1217.219604 550.975830,1214.959717 
	C507.594482,1210.201660 465.336914,1200.133545 424.054596,1186.081421 
	C358.296875,1163.698486 297.584015,1131.692261 242.717422,1089.040771 
	C225.417145,1075.592163 208.928864,1061.025024 192.741730,1046.233521 
	C156.189163,1012.832642 125.294472,974.584595 98.500725,933.039490 
	C64.804077,880.791016 39.270592,824.783142 24.112776,764.429077 
	C17.582642,738.427979 12.900156,711.923645 8.352305,685.480469 
	C6.083547,672.288879 5.593734,658.737183 5.042816,645.317810 
	C4.319435,627.697571 3.440137,610.006165 4.250639,592.420227 
	C5.249688,570.743286 7.372859,549.077148 9.985325,527.524536 
	C14.616067,489.321259 24.251633,452.234558 36.909065,415.932068 
	C51.981583,372.702942 71.862816,331.792328 96.453362,293.170135 
	C117.685608,259.822479 141.968185,228.907898 169.103973,200.124924 
	C209.800400,156.958221 255.887344,120.683624 306.893951,90.560287 
	C346.153625,67.374443 387.551086,48.874809 430.840454,34.601997 
	C462.112427,24.291430 494.048645,16.521597 526.522644,11.290590 
	C544.830200,8.341555 563.349121,6.154556 581.856262,5.128223 
	C607.584961,3.701411 633.439148,2.442727 659.151733,3.421556 
	C683.942810,4.365309 708.696167,7.686050 733.333191,10.962513 
	C769.965454,15.834235 805.629700,25.156092 840.564026,37.095154 
	C905.807373,59.392456 966.079651,91.213745 1020.634155,133.409271 
	C1038.359009,147.118622 1055.122437,162.136444 1071.725098,177.216965 
	C1102.636108,205.294235 1129.122681,237.288239 1153.277100,271.722015 
M813.000610,740.989502 
	C813.000610,740.989502 813.064575,740.923828 812.477905,740.314514 
	C811.158630,740.208923 809.839417,740.010986 808.520142,740.010803 
	C694.916870,739.996582 581.313660,739.993652 467.710419,740.040039 
	C466.179565,740.040649 464.648987,740.678284 463.034393,741.949707 
	C463.034393,747.868164 463.034393,753.786621 463.034393,760.044312 
	C465.814209,760.044312 467.792908,760.044312 469.771637,760.044312 
	C582.178833,760.044312 694.586060,760.045105 806.993286,760.037903 
	C808.989319,760.037781 810.985291,759.942505 813.634460,759.389404 
	C813.447937,753.238647 813.261475,747.087891 813.000610,740.989502 
M516.516785,405.154541 
	C516.397217,405.442627 516.277710,405.730682 516.021484,406.944763 
	C516.021484,510.521973 516.021484,614.099182 516.021484,717.714355 
	C567.858093,717.714355 619.095093,717.714355 670.894165,717.714355 
	C670.894165,682.705505 670.894165,647.978333 670.894165,613.008667 
	C681.151062,613.008667 690.926453,613.791626 700.522339,612.813721 
	C712.963501,611.545776 725.593811,610.027649 737.555542,606.580078 
	C766.795349,598.152649 789.804016,581.304993 803.283264,553.168396 
	C809.173889,540.872253 811.782593,527.836548 812.063049,514.199951 
	C812.371033,499.222351 812.084717,484.380524 806.625793,470.151154 
	C794.738464,439.165039 772.490479,419.686279 740.643005,410.981171 
	C721.925903,405.865082 702.628845,405.634308 683.480835,405.296448 
	C651.330444,404.729187 619.163025,405.100403 587.002808,405.114380 
	C563.676208,405.124481 540.349548,405.195374 516.516785,405.154541 
z"/>
<path fill="#FEFEFE" opacity="1.000000" stroke="none" 
	d="
M517.022949,405.239136 
	C540.349548,405.195374 563.676208,405.124481 587.002808,405.114380 
	C619.163025,405.100403 651.330444,404.729187 683.480835,405.296448 
	C702.628845,405.634308 721.925903,405.865082 740.643005,410.981171 
	C772.490479,419.686279 794.738464,439.165039 806.625793,470.151154 
	C812.084717,484.380524 812.371033,499.222351 812.063049,514.199951 
	C811.782593,527.836548 809.173889,540.872253 803.283264,553.168396 
	C789.804016,581.304993 766.795349,598.152649 737.555542,606.580078 
	C725.593811,610.027649 712.963501,611.545776 700.522339,612.813721 
	C690.926453,613.791626 681.151062,613.008667 670.894165,613.008667 
	C670.894165,647.978333 670.894165,682.705505 670.894165,717.714355 
	C619.095093,717.714355 567.858093,717.714355 516.021484,717.714355 
	C516.021484,614.099182 516.021484,510.521973 516.269348,406.393951 
	C516.754395,405.699249 516.922974,405.497925 517.022949,405.239136 
M777.036255,455.517975 
	C768.754456,444.601440 757.952209,437.002380 745.353333,431.964172 
	C728.275635,425.134918 710.310669,422.360779 692.077454,422.255127 
	C641.581970,421.962524 591.083862,422.132538 540.586792,422.137482 
	C539.160156,422.137634 537.733521,422.338745 536.473389,422.433624 
	C536.473389,515.495789 536.473389,608.061340 536.473389,700.644531 
	C574.628723,700.644531 612.394409,700.644531 650.789185,700.644531 
	C650.789185,628.010681 650.789185,555.636047 650.789185,483.335510 
	C665.426453,481.707581 670.294495,485.798248 670.773865,499.554016 
	C670.831909,501.218750 670.799683,502.886841 670.799805,504.553375 
	C670.800964,532.885071 670.800720,561.216797 670.800720,589.548523 
	C670.800720,591.333191 670.800720,593.117920 670.800720,594.825256 
	C672.184265,595.177002 672.981140,595.526794 673.792603,595.564575 
	C697.984131,596.689453 721.826355,595.241455 744.407715,585.352600 
	C766.723999,575.579773 782.024963,559.253479 788.395325,535.616272 
	C792.052734,522.045349 793.019287,508.128906 791.213562,493.886749 
	C789.461609,480.069336 785.704712,467.360260 777.036255,455.517975 
z"/>
<path fill="#0098DA" opacity="1.000000" stroke="none" 
	d="
M812.981323,759.891602 
	C810.985291,759.942505 808.989319,760.037781 806.993286,760.037903 
	C694.586060,760.045105 582.178833,760.044312 469.771637,760.044312 
	C467.792908,760.044312 465.814209,760.044312 463.034393,760.044312 
	C463.034393,753.786621 463.034393,747.868164 463.533936,741.477539 
	C539.099609,741.003540 614.165771,741.009949 689.231934,740.996765 
	C730.509460,740.989502 771.787048,740.949219 813.064575,740.923828 
	C813.064575,740.923828 813.000610,740.989502 813.008728,741.436035 
	C813.005005,747.885620 812.993164,753.888672 812.981323,759.891602 
z"/>
<path fill="#008CC8" opacity="1.000000" stroke="none" 
	d="
M812.771240,740.619141 
	C771.787048,740.949219 730.509460,740.989502 689.231934,740.996765 
	C614.165771,741.009949 539.099609,741.003540 463.575867,741.011963 
	C464.648987,740.678284 466.179565,740.040649 467.710419,740.040039 
	C581.313660,739.993652 694.916870,739.996582 808.520142,740.010803 
	C809.839417,740.010986 811.158630,740.208923 812.771240,740.619141 
z"/>
<path fill="#008CC8" opacity="1.000000" stroke="none" 
	d="
M813.307861,759.640503 
	C812.993164,753.888672 813.005005,747.885620 813.045898,741.409912 
	C813.261475,747.087891 813.447937,753.238647 813.307861,759.640503 
z"/>
<path fill="#DCDFEA" opacity="1.000000" stroke="none" 
	d="
M516.769897,405.196838 
	C516.922974,405.497925 516.754395,405.699249 516.337646,405.930969 
	C516.277710,405.730682 516.397217,405.442627 516.769897,405.196838 
z"/>
<path fill="#52658C" opacity="1.000000" stroke="none" 
	d="
M777.258545,455.797028 
	C785.704712,467.360260 789.461609,480.069336 791.213562,493.886749 
	C793.019287,508.128906 792.052734,522.045349 788.395325,535.616272 
	C782.024963,559.253479 766.723999,575.579773 744.407715,585.352600 
	C721.826355,595.241455 697.984131,596.689453 673.792603,595.564575 
	C672.981140,595.526794 672.184265,595.177002 670.800720,594.825256 
	C670.800720,593.117920 670.800720,591.333191 670.800720,589.548523 
	C670.800720,561.216797 670.800964,532.885071 670.799805,504.553375 
	C670.799683,502.886841 670.831909,501.218750 670.773865,499.554016 
	C670.294495,485.798248 665.426453,481.707581 650.789185,483.335510 
	C650.789185,555.636047 650.789185,628.010681 650.789185,700.644531 
	C612.394409,700.644531 574.628723,700.644531 536.473389,700.644531 
	C536.473389,608.061340 536.473389,515.495789 536.473389,422.433624 
	C537.733521,422.338745 539.160156,422.137634 540.586792,422.137482 
	C591.083862,422.132538 641.581970,421.962524 692.077454,422.255127 
	C710.310669,422.360779 728.275635,425.134918 745.353333,431.964172 
	C757.952209,437.002380 768.754456,444.601440 777.258545,455.797028 
z"/>
</svg>