<svg version="1.1" id="Layer_1" xmlns="http://www.w3.org/2000/svg" xmlns:xlink="http://www.w3.org/1999/xlink" x="0px" y="0px"
	 width="100%" viewBox="0 0 1846 1348" enable-background="new 0 0 1846 1348" xml:space="preserve">
<path fill="#52658C" opacity="1.000000" stroke="none" 
	d="
M1847.000000,666.000000 
	C1847.000000,676.354248 1847.000000,686.708435 1846.647217,697.591919 
	C1844.876709,700.279114 1844.022339,702.369507 1847.000000,704.000000 
	C1847.000000,708.689270 1847.000000,713.378479 1846.715576,718.508545 
	C1846.620850,719.632935 1846.810425,720.316467 1847.000000,721.000000 
	C1847.000000,737.354248 1847.000000,753.708435 1846.647217,770.591919 
	C1844.876709,773.279114 1844.022339,775.369507 1847.000000,777.000000 
	C1847.000000,778.066711 1847.000000,779.133362 1846.683105,780.604614 
	C1846.577393,782.006042 1846.788696,783.003052 1847.000000,784.000000 
	C1847.000000,786.041687 1847.000000,788.083313 1846.715576,790.537231 
	C1846.620850,791.632935 1846.810425,792.316467 1847.000000,793.000000 
	C1847.000000,798.022095 1847.000000,803.044189 1846.639526,808.604736 
	C1844.744751,811.615356 1844.051025,813.999207 1847.000000,816.000000 
	C1847.000000,822.021179 1847.000000,828.042297 1846.737183,834.645508 
	C1846.649536,835.818298 1846.824829,836.409180 1847.000000,837.000000 
	C1847.000000,839.700012 1847.000000,842.400024 1846.654297,845.596436 
	C1846.539062,847.728577 1846.769531,849.364258 1847.000000,851.000000 
	C1847.000000,852.388916 1847.000000,853.777771 1846.645264,855.709229 
	C1844.960083,858.978027 1843.690308,861.698730 1847.000000,864.000000 
	C1847.000000,866.700012 1847.000000,869.400024 1846.678467,872.556885 
	C1846.571411,874.009094 1846.785645,875.004578 1847.000000,876.000000 
	C1847.000000,876.750000 1847.000000,877.500000 1846.799072,878.682861 
	C1846.732056,879.410522 1846.866089,879.705261 1847.000000,880.000000 
	C1847.000000,881.066711 1847.000000,882.133362 1846.625488,883.693787 
	C1844.880859,887.903870 1843.642944,891.611084 1847.000000,895.000000 
	C1847.000000,895.750000 1847.000000,896.500000 1846.682983,897.629517 
	C1846.577271,899.006104 1846.788574,900.003052 1847.000000,901.000000 
	C1847.000000,902.714355 1847.000000,904.428711 1846.799072,906.629395 
	C1846.732056,907.410522 1846.865967,907.705261 1847.000000,908.000000 
	C1847.000000,914.354431 1847.000000,920.708801 1846.667969,927.782104 
	C1846.158691,931.526978 1845.981323,934.552856 1845.639893,937.778442 
	C1845.390259,938.306396 1845.304688,938.634705 1845.219971,939.200867 
	C1845.221069,939.438660 1845.254272,939.913208 1845.191162,940.303894 
	C1845.751953,942.129761 1846.375977,943.564880 1847.000000,945.000000 
	C1847.000000,952.020935 1847.000000,959.041931 1846.666992,966.784546 
	C1846.027954,970.316467 1845.721802,973.126648 1845.313477,976.296143 
	C1845.807373,978.770203 1846.403687,980.885132 1847.000000,983.000000 
	C1847.000000,1000.354248 1847.000000,1017.708496 1846.676514,1035.749023 
	C1846.568848,1038.290161 1846.784424,1040.145142 1847.000000,1042.000000 
	C1847.000000,1050.020874 1847.000000,1058.041870 1846.648804,1066.577881 
	C1844.689819,1068.992310 1844.074097,1070.749634 1847.000000,1072.000000 
	C1847.000000,1074.370605 1847.000000,1076.741089 1846.625244,1079.639404 
	C1844.735718,1083.261108 1843.619995,1086.321289 1847.000000,1089.000000 
	C1847.000000,1093.024536 1847.000000,1097.049072 1846.790405,1101.588745 
	C1846.720581,1102.402588 1846.860229,1102.701294 1847.000000,1103.000000 
	C1847.000000,1106.361328 1847.000000,1109.722534 1846.630371,1113.618896 
	C1845.979004,1117.123535 1845.697266,1120.093262 1845.411499,1123.464111 
	C1845.938354,1126.576904 1846.469116,1129.288452 1847.000000,1132.000000 
	C1847.000000,1149.687622 1847.000000,1167.375122 1846.683350,1185.697754 
	C1846.173584,1186.998047 1845.980347,1187.663208 1845.931396,1188.529541 
	C1846.334595,1188.989624 1846.642700,1189.079346 1847.000000,1189.000000 
	C1847.000000,1189.444458 1847.000000,1189.888916 1846.673584,1190.897095 
	C1846.564819,1193.640503 1846.782349,1195.820312 1847.000000,1198.000000 
	C1847.000000,1231.354248 1847.000000,1264.708496 1846.678589,1298.538208 
	C1846.571411,1300.009155 1846.785767,1301.004517 1847.000000,1302.000000 
	C1847.000000,1311.687622 1847.000000,1321.375122 1846.619019,1331.623169 
	C1845.904907,1335.779175 1845.571655,1339.374634 1845.157471,1343.379150 
	C1842.470825,1344.563232 1839.865234,1346.017212 1837.259521,1346.017700 
	C1228.787598,1346.116455 620.315735,1346.113647 11.843810,1346.112427 
	C3.896541,1346.112427 3.887761,1346.104614 3.887736,1338.246338 
	C3.886330,895.600098 3.884212,452.953918 3.932475,10.307701 
	C3.932813,7.205096 4.628825,4.102565 5.000000,1.000000 
	C10.354930,1.000000 15.709859,1.000000 21.632301,1.379204 
	C24.921644,2.134389 27.643429,2.839316 30.365316,2.839718 
	C364.716675,2.889033 699.068054,2.886414 1033.419434,2.884909 
	C1035.251831,2.884900 1037.121216,3.078257 1038.902954,2.771879 
	C1040.004395,2.582484 1040.972168,1.617045 1042.000000,0.999996 
	C1308.354248,1.000000 1574.708496,1.000000 1841.559326,1.344174 
	C1843.703979,2.458890 1845.351929,3.229430 1847.000000,3.999985 
	C1847.000000,8.024545 1847.000000,12.049088 1846.668213,16.781872 
	C1846.073853,18.265944 1845.593506,19.038315 1845.581177,19.818134 
	C1845.409302,30.617216 1845.240479,41.417431 1845.260132,52.217072 
	C1845.262451,53.479115 1846.392578,54.739105 1847.000000,56.000023 
	C1847.000000,56.750000 1847.000000,57.500000 1846.623047,58.712704 
	C1845.881226,62.118614 1845.516235,65.061821 1845.151245,68.005020 
	C1845.767456,68.003349 1846.383789,68.001678 1847.000000,68.000000 
	C1847.000000,71.692909 1847.000000,75.385818 1846.615479,79.635773 
	C1845.976074,87.256104 1845.721191,94.319374 1845.395874,101.697556 
	C1845.883667,103.674980 1846.441772,105.337486 1847.000000,107.000000 
	C1847.000000,124.354225 1847.000000,141.708450 1846.749756,159.535309 
	C1846.173706,160.134567 1845.936279,160.355865 1845.697266,160.883362 
	C1845.607544,161.094879 1845.566895,161.552658 1845.428711,161.963303 
	C1845.193970,164.151825 1844.800659,165.976379 1845.071411,167.696472 
	C1845.460815,170.170853 1846.333496,172.569214 1847.000000,175.000000 
	C1847.000000,192.687561 1847.000000,210.375122 1846.749756,228.535309 
	C1846.173706,229.134567 1845.936279,229.355865 1845.674194,229.912537 
	C1845.526733,230.327057 1845.492310,230.500916 1845.345947,231.074280 
	C1845.822876,234.649216 1846.411377,237.824600 1847.000000,241.000000 
	C1847.000000,259.687561 1847.000000,278.375122 1846.667480,297.783966 
	C1846.119019,301.558685 1845.903198,304.612122 1845.535156,308.013367 
	C1845.536743,310.264984 1845.690430,312.168793 1846.137695,314.126038 
	C1846.620728,314.119659 1846.810425,314.059845 1847.000000,314.000000 
	C1847.000000,352.020905 1847.000000,390.041779 1846.630127,428.608826 
	C1844.674805,431.942688 1843.628662,434.679596 1847.000000,437.000000 
	C1847.000000,459.687561 1847.000000,482.375122 1846.650635,505.577881 
	C1845.949219,507.406433 1845.597168,508.719757 1845.184204,510.494995 
	C1845.085327,514.846436 1844.862793,518.747375 1845.102295,522.619812 
	C1845.194824,524.113281 1846.336426,525.541870 1847.000000,527.000000 
	C1847.000000,529.041687 1847.000000,531.083313 1846.634033,533.632507 
	C1844.600708,536.630615 1843.917725,539.016113 1847.000000,541.000000 
	C1847.000000,550.687561 1847.000000,560.375122 1846.664307,570.794373 
	C1846.057739,575.210266 1845.787109,578.894531 1845.389771,582.995728 
	C1845.180664,588.302002 1844.955322,593.195801 1845.109619,598.077576 
	C1845.151367,599.403625 1846.338623,600.693481 1847.000000,602.000000 
	C1847.000000,622.020874 1847.000000,642.041809 1846.690552,662.580688 
	C1846.587402,664.065857 1846.793701,665.032898 1847.000000,666.000000 
M1256.054932,398.659454 
	C1254.609253,392.603241 1253.491577,386.446014 1251.662720,380.507782 
	C1242.171509,349.689911 1226.268188,322.951447 1201.948364,301.305573 
	C1183.034424,284.471161 1161.723022,272.188477 1137.860596,263.870575 
	C1113.784058,255.478043 1088.828247,252.089294 1063.649536,250.111252 
	C1047.469116,248.840088 1031.199219,248.196457 1014.967773,248.167679 
	C911.140320,247.983612 807.312561,248.046814 703.484863,248.042480 
	C702.047485,248.042419 700.610046,248.220291 699.136475,248.317520 
	C699.136475,444.982727 699.136475,641.237732 699.136475,837.640503 
	C796.747620,837.640503 894.112366,837.640503 991.912476,837.640503 
	C991.912476,771.689453 991.912476,706.101196 991.912476,639.654724 
	C997.766357,640.127625 1003.138672,640.955322 1008.505249,640.919189 
	C1022.960388,640.821960 1037.438354,640.774231 1051.858765,639.903992 
	C1063.308838,639.212952 1074.777954,637.853760 1086.078857,635.877563 
	C1109.097778,631.852234 1131.429077,625.163086 1152.386597,614.777039 
	C1175.836914,603.155396 1196.969604,588.311462 1214.381226,568.341309 
	C1225.283691,555.836853 1234.820679,542.512512 1241.651001,527.498535 
	C1255.293823,497.510345 1260.996460,465.899139 1258.960571,432.987518 
	C1258.269775,421.819672 1257.092407,410.681915 1256.054932,398.659454 
M783.500000,944.070129 
	C959.152771,944.070068 1134.805542,944.070068 1310.458374,944.069397 
	C1312.291504,944.069397 1314.131348,943.959595 1315.956421,944.078735 
	C1318.942017,944.273743 1320.149536,943.027710 1320.079956,940.001465 
	C1319.946167,934.171753 1319.794434,928.321899 1320.134033,922.508606 
	C1320.392334,918.088135 1318.850586,916.291565 1314.465820,916.903809 
	C1313.484985,917.040833 1312.468750,916.922180 1311.468750,916.922180 
	C1050.489014,916.922119 789.509338,916.922058 528.529602,916.922668 
	C527.029724,916.922668 525.523438,917.022949 524.031372,916.917236 
	C521.047607,916.705627 519.826416,917.972900 519.901306,920.994751 
	C520.033386,926.324219 519.921814,931.659546 519.927185,936.992432 
	C519.934387,944.054932 519.940552,944.067566 527.019836,944.067810 
	C612.179871,944.070923 697.339966,944.070068 783.500000,944.070129 
z"/>
<path fill="#373435" opacity="1.000000" stroke="none" 
	d="
M4.500000,1.000000 
	C4.628825,4.102565 3.932813,7.205096 3.932475,10.307701 
	C3.884212,452.953918 3.886330,895.600098 3.887736,1338.246338 
	C3.887761,1346.104614 3.896541,1346.112427 11.843810,1346.112427 
	C620.315735,1346.113647 1228.787598,1346.116455 1837.259521,1346.017700 
	C1839.865234,1346.017212 1842.470825,1344.563232 1845.326416,1343.177734 
	C1846.050903,1342.044922 1846.525513,1341.522461 1847.000000,1341.000000 
	C1847.000000,1343.666260 1847.000000,1346.332520 1847.000000,1348.999023 
	C1231.763062,1348.999390 616.526062,1348.999390 1.144543,1348.999390 
	C1.144543,899.666687 1.144543,450.333344 1.144543,1.000000 
	C2.000432,1.000000 3.000216,1.000000 4.500000,1.000000 
z"/>
<path fill="#373435" opacity="1.000000" stroke="none" 
	d="
M1041.531372,0.999996 
	C1040.972168,1.617045 1040.004395,2.582484 1038.902954,2.771879 
	C1037.121216,3.078257 1035.251831,2.884900 1033.419434,2.884909 
	C699.068054,2.886414 364.716675,2.889033 30.365316,2.839718 
	C27.643429,2.839316 24.921644,2.134389 22.099907,1.379204 
	C361.687592,1.000000 701.375183,1.000000 1041.531372,0.999996 
z"/>
<path fill="#373435" opacity="1.000000" stroke="none" 
	d="
M1847.000000,55.531364 
	C1846.392578,54.739105 1845.262451,53.479115 1845.260132,52.217072 
	C1845.240479,41.417431 1845.409302,30.617216 1845.581177,19.818134 
	C1845.593506,19.038315 1846.073853,18.265944 1846.668213,17.245054 
	C1847.000000,29.687561 1847.000000,42.375122 1847.000000,55.531364 
z"/>
<path fill="#434347" opacity="1.000000" stroke="none" 
	d="
M1845.466309,101.382668 
	C1845.721191,94.319374 1845.976074,87.256104 1846.615479,80.096413 
	C1847.000000,86.021156 1847.000000,92.042305 1846.781494,98.807129 
	C1846.197510,100.161423 1845.831909,100.772057 1845.466309,101.382668 
z"/>
<path fill="#434347" opacity="1.000000" stroke="none" 
	d="
M1847.000000,601.532410 
	C1846.338623,600.693481 1845.151367,599.403625 1845.109619,598.077576 
	C1844.955322,593.195801 1845.180664,588.302002 1845.562866,583.313843 
	C1846.241699,583.809998 1846.620850,584.405029 1847.000000,585.000000 
	C1847.000000,590.354919 1847.000000,595.709900 1847.000000,601.532410 
z"/>
<path fill="#434347" opacity="1.000000" stroke="none" 
	d="
M1847.000000,526.533875 
	C1846.336426,525.541870 1845.194824,524.113281 1845.102295,522.619812 
	C1844.862793,518.747375 1845.085327,514.846436 1845.352051,510.696350 
	C1846.053955,510.957184 1846.526978,511.478577 1847.000000,511.999969 
	C1847.000000,516.689270 1847.000000,521.378479 1847.000000,526.533875 
z"/>
<path fill="#373435" opacity="1.000000" stroke="none" 
	d="
M1847.000000,894.541931 
	C1843.642944,891.611084 1844.880859,887.903870 1846.625488,884.093750 
	C1847.000000,887.361267 1847.000000,890.722595 1847.000000,894.541931 
z"/>
<path fill="#434347" opacity="1.000000" stroke="none" 
	d="
M1847.000000,1340.550049 
	C1846.525513,1341.522461 1846.050903,1342.044922 1845.407471,1342.768799 
	C1845.571655,1339.374634 1845.904907,1335.779175 1846.619019,1332.091797 
	C1847.000000,1334.700073 1847.000000,1337.400024 1847.000000,1340.550049 
z"/>
<path fill="#434347" opacity="1.000000" stroke="none" 
	d="
M1847.000000,67.550018 
	C1846.383789,68.001678 1845.767456,68.003349 1845.151245,68.005020 
	C1845.516235,65.061821 1845.881226,62.118614 1846.623047,59.087704 
	C1847.000000,61.700016 1847.000000,64.400032 1847.000000,67.550018 
z"/>
<path fill="#434347" opacity="1.000000" stroke="none" 
	d="
M1847.000000,240.550018 
	C1846.411377,237.824600 1845.822876,234.649216 1845.603271,231.299469 
	C1846.314819,231.416733 1846.657349,231.708359 1847.000000,232.000000 
	C1847.000000,234.700012 1847.000000,237.400024 1847.000000,240.550018 
z"/>
<path fill="#434347" opacity="1.000000" stroke="none" 
	d="
M1847.000000,1088.550049 
	C1843.619995,1086.321289 1844.735718,1083.261108 1846.625244,1080.083496 
	C1847.000000,1082.700073 1847.000000,1085.400024 1847.000000,1088.550049 
z"/>
<path fill="#434347" opacity="1.000000" stroke="none" 
	d="
M1845.415527,1123.062988 
	C1845.697266,1120.093262 1845.979004,1117.123535 1846.630371,1114.076904 
	C1847.000000,1116.700073 1847.000000,1119.400024 1846.603760,1122.564453 
	C1845.943481,1123.040405 1845.679443,1123.051758 1845.415527,1123.062988 
z"/>
<path fill="#434347" opacity="1.000000" stroke="none" 
	d="
M1847.000000,174.625000 
	C1846.333496,172.569214 1845.460815,170.170853 1845.071411,167.696472 
	C1844.800659,165.976379 1845.193970,164.151825 1845.523193,162.442535 
	C1846.170410,165.674103 1846.585205,168.837051 1847.000000,172.000000 
	C1847.000000,172.750000 1847.000000,173.500000 1847.000000,174.625000 
z"/>
<path fill="#434347" opacity="1.000000" stroke="none" 
	d="
M1847.000000,436.555847 
	C1843.628662,434.679596 1844.674805,431.942688 1846.630127,429.077454 
	C1847.000000,431.370575 1847.000000,433.741119 1847.000000,436.555847 
z"/>
<path fill="#373435" opacity="1.000000" stroke="none" 
	d="
M1847.000000,863.555847 
	C1843.690308,861.698730 1844.960083,858.978027 1846.645264,856.125916 
	C1847.000000,858.370544 1847.000000,860.741150 1847.000000,863.555847 
z"/>
<path fill="#373435" opacity="1.000000" stroke="none" 
	d="
M1847.000000,815.562500 
	C1844.051025,813.999207 1844.744751,811.615356 1846.639526,809.071594 
	C1847.000000,811.041687 1847.000000,813.083313 1847.000000,815.562500 
z"/>
<path fill="#434347" opacity="1.000000" stroke="none" 
	d="
M1847.000000,982.562500 
	C1846.403687,980.885132 1845.807373,978.770203 1845.709961,976.313110 
	C1846.472656,975.980530 1846.736328,975.990295 1847.000000,976.000000 
	C1847.000000,978.041687 1847.000000,980.083313 1847.000000,982.562500 
z"/>
<path fill="#434347" opacity="1.000000" stroke="none" 
	d="
M1847.000000,540.562500 
	C1843.917725,539.016113 1844.600708,536.630615 1846.634033,534.070007 
	C1847.000000,536.041687 1847.000000,538.083313 1847.000000,540.562500 
z"/>
<path fill="#373435" opacity="1.000000" stroke="none" 
	d="
M1847.000000,584.535339 
	C1846.620850,584.405029 1846.241699,583.809998 1845.689453,582.896851 
	C1845.787109,578.894531 1846.057739,575.210266 1846.664307,571.263062 
	C1847.000000,575.356873 1847.000000,579.713806 1847.000000,584.535339 
z"/>
<path fill="#373435" opacity="1.000000" stroke="none" 
	d="
M1845.395874,101.697571 
	C1845.831909,100.772057 1846.197510,100.161423 1846.781494,99.275391 
	C1847.000000,101.370560 1847.000000,103.741112 1847.000000,106.555832 
	C1846.441772,105.337486 1845.883667,103.674980 1845.395874,101.697571 
z"/>
<path fill="#373435" opacity="1.000000" stroke="none" 
	d="
M1845.411499,1123.464111 
	C1845.679443,1123.051758 1845.943481,1123.040405 1846.603760,1123.014404 
	C1847.000000,1125.700073 1847.000000,1128.400024 1847.000000,1131.550049 
	C1846.469116,1129.288452 1845.938354,1126.576904 1845.411499,1123.464111 
z"/>
<path fill="#373435" opacity="1.000000" stroke="none" 
	d="
M1845.803955,937.578796 
	C1845.981323,934.552856 1846.158691,931.526978 1846.667969,928.250488 
	C1847.000000,931.692932 1847.000000,935.385803 1846.708252,939.533936 
	C1846.029053,939.963867 1845.641724,939.938538 1845.254272,939.913208 
	C1845.254272,939.913208 1845.221069,939.438660 1845.342529,938.983948 
	C1845.577271,938.212402 1845.690674,937.895630 1845.803955,937.578796 
z"/>
<path fill="#373435" opacity="1.000000" stroke="none" 
	d="
M1847.000000,3.499985 
	C1845.351929,3.229430 1843.703979,2.458890 1842.027954,1.344174 
	C1843.448120,2.212966 1846.928833,-1.655511 1847.000000,3.499985 
z"/>
<path fill="#373435" opacity="1.000000" stroke="none" 
	d="
M1847.000000,776.571533 
	C1844.022339,775.369507 1844.876709,773.279114 1846.647217,771.060547 
	C1847.000000,772.714355 1847.000000,774.428711 1847.000000,776.571533 
z"/>
<path fill="#373435" opacity="1.000000" stroke="none" 
	d="
M1847.000000,703.571533 
	C1844.022339,702.369507 1844.876709,700.279114 1846.647217,698.060547 
	C1847.000000,699.714355 1847.000000,701.428711 1847.000000,703.571533 
z"/>
<path fill="#373435" opacity="1.000000" stroke="none" 
	d="
M1847.000000,171.541931 
	C1846.585205,168.837051 1846.170410,165.674103 1845.661377,162.031891 
	C1845.566895,161.552658 1845.607544,161.094879 1845.998779,160.975891 
	C1846.593262,160.904602 1846.796631,160.952301 1847.000000,161.000000 
	C1847.000000,164.361282 1847.000000,167.722580 1847.000000,171.541931 
z"/>
<path fill="#373435" opacity="1.000000" stroke="none" 
	d="
M1845.687378,307.665527 
	C1845.903198,304.612122 1846.119019,301.558685 1846.667480,298.252625 
	C1847.000000,301.361298 1847.000000,304.722565 1846.999512,308.847900 
	C1846.837769,309.735443 1846.676636,309.858917 1846.302612,309.405243 
	C1845.955688,308.440613 1845.821533,308.053070 1845.687378,307.665527 
z"/>
<path fill="#434347" opacity="1.000000" stroke="none" 
	d="
M1847.000000,1071.583374 
	C1844.074097,1070.749634 1844.689819,1068.992310 1846.648804,1067.046509 
	C1847.000000,1068.388916 1847.000000,1069.777832 1847.000000,1071.583374 
z"/>
<path fill="#373435" opacity="1.000000" stroke="none" 
	d="
M1847.000000,850.583374 
	C1846.769531,849.364258 1846.539062,847.728577 1846.654297,846.046387 
	C1847.000000,847.388916 1847.000000,848.777771 1847.000000,850.583374 
z"/>
<path fill="#373435" opacity="1.000000" stroke="none" 
	d="
M1847.000000,511.571503 
	C1846.526978,511.478577 1846.053955,510.957184 1845.413086,510.234436 
	C1845.597168,508.719757 1845.949219,507.406433 1846.650635,506.046570 
	C1847.000000,507.714355 1847.000000,509.428711 1847.000000,511.571503 
z"/>
<path fill="#434347" opacity="1.000000" stroke="none" 
	d="
M1845.191162,940.303894 
	C1845.641724,939.938538 1846.029053,939.963867 1846.708252,939.994629 
	C1847.000000,941.388916 1847.000000,942.777771 1847.000000,944.583374 
	C1846.375977,943.564880 1845.751953,942.129761 1845.191162,940.303894 
z"/>
<path fill="#373435" opacity="1.000000" stroke="none" 
	d="
M1847.000000,975.550049 
	C1846.736328,975.990295 1846.472656,975.980530 1845.812256,975.953857 
	C1845.721802,973.126648 1846.027954,970.316467 1846.666992,967.253113 
	C1847.000000,969.700012 1847.000000,972.400024 1847.000000,975.550049 
z"/>
<path fill="#373435" opacity="1.000000" stroke="none" 
	d="
M1847.000000,1197.562500 
	C1846.782349,1195.820312 1846.564819,1193.640503 1846.673584,1191.230469 
	C1847.000000,1193.041626 1847.000000,1195.083374 1847.000000,1197.562500 
z"/>
<path fill="#373435" opacity="1.000000" stroke="none" 
	d="
M1847.000000,783.625000 
	C1846.788696,783.003052 1846.577393,782.006042 1846.683105,781.004517 
	C1847.000000,781.750000 1847.000000,782.500000 1847.000000,783.625000 
z"/>
<path fill="#373435" opacity="1.000000" stroke="none" 
	d="
M1847.000000,1041.571533 
	C1846.784424,1040.145142 1846.568848,1038.290161 1846.676514,1036.217651 
	C1847.000000,1037.714355 1847.000000,1039.428711 1847.000000,1041.571533 
z"/>
<path fill="#434347" opacity="1.000000" stroke="none" 
	d="
M1847.000000,1301.625000 
	C1846.785767,1301.004517 1846.571411,1300.009155 1846.678589,1299.006836 
	C1847.000000,1299.750000 1847.000000,1300.500000 1847.000000,1301.625000 
z"/>
<path fill="#373435" opacity="1.000000" stroke="none" 
	d="
M1847.000000,900.625000 
	C1846.788574,900.003052 1846.577271,899.006104 1846.682983,898.004517 
	C1847.000000,898.750000 1847.000000,899.500000 1847.000000,900.625000 
z"/>
<path fill="#434347" opacity="1.000000" stroke="none" 
	d="
M1847.000000,875.625000 
	C1846.785645,875.004578 1846.571411,874.009094 1846.678467,873.006836 
	C1847.000000,873.750000 1847.000000,874.500000 1847.000000,875.625000 
z"/>
<path fill="#373435" opacity="1.000000" stroke="none" 
	d="
M1847.000000,665.625000 
	C1846.793701,665.032898 1846.587402,664.065857 1846.690552,663.049377 
	C1847.000000,663.750000 1847.000000,664.500000 1847.000000,665.625000 
z"/>
<path fill="#373435" opacity="1.000000" stroke="none" 
	d="
M1847.000000,792.666687 
	C1846.810425,792.316467 1846.620850,791.632935 1846.715576,790.974731 
	C1847.000000,791.444458 1847.000000,791.888916 1847.000000,792.666687 
z"/>
<path fill="#373435" opacity="1.000000" stroke="none" 
	d="
M1847.000000,720.666687 
	C1846.810425,720.316467 1846.620850,719.632935 1846.715576,718.974731 
	C1847.000000,719.444458 1847.000000,719.888916 1847.000000,720.666687 
z"/>
<path fill="#373435" opacity="1.000000" stroke="none" 
	d="
M1847.000000,313.625000 
	C1846.810425,314.059845 1846.620728,314.119659 1846.199219,313.622131 
	C1846.147095,312.059509 1846.327026,311.054291 1846.752930,310.222412 
	C1846.999390,310.597198 1846.999634,310.798615 1847.000000,311.000000 
	C1847.000000,311.750000 1847.000000,312.500000 1847.000000,313.625000 
z"/>
<path fill="#373435" opacity="1.000000" stroke="none" 
	d="
M1845.786987,1188.328369 
	C1845.980347,1187.663208 1846.173584,1186.998047 1846.683350,1186.166504 
	C1847.000000,1186.444458 1847.000000,1186.888794 1846.694580,1187.740234 
	C1846.188354,1188.207642 1845.987671,1188.267944 1845.786987,1188.328369 
z"/>
<path fill="#373435" opacity="1.000000" stroke="none" 
	d="
M1847.000000,836.666687 
	C1846.824829,836.409180 1846.649536,835.818298 1846.737183,835.113770 
	C1847.000000,835.444458 1847.000000,835.888916 1847.000000,836.666687 
z"/>
<path fill="#52658C" opacity="1.000000" stroke="none" 
	d="
M1847.000000,310.666687 
	C1846.999634,310.798615 1846.999390,310.597198 1846.746582,310.212769 
	C1846.494141,310.029785 1846.515503,309.982361 1846.515503,309.982361 
	C1846.676636,309.858917 1846.837769,309.735443 1846.999512,309.305969 
	C1847.000000,309.444458 1847.000000,309.888885 1847.000000,310.666687 
z"/>
<path fill="#373435" opacity="1.000000" stroke="none" 
	d="
M1847.000000,231.666656 
	C1846.657349,231.708359 1846.314819,231.416733 1845.714966,230.899933 
	C1845.492310,230.500916 1845.526733,230.327057 1845.975586,230.005066 
	C1846.593262,229.904602 1846.796631,229.952301 1847.000000,230.000000 
	C1847.000000,230.444443 1847.000000,230.888901 1847.000000,231.666656 
z"/>
<path fill="#373435" opacity="1.000000" stroke="none" 
	d="
M1847.000000,1102.750000 
	C1846.860229,1102.701294 1846.720581,1102.402588 1846.790405,1102.052002 
	C1847.000000,1102.000000 1847.000000,1102.500000 1847.000000,1102.750000 
z"/>
<path fill="#434347" opacity="1.000000" stroke="none" 
	d="
M1847.000000,907.750000 
	C1846.865967,907.705261 1846.732056,907.410522 1846.799072,907.057861 
	C1847.000000,907.000000 1847.000000,907.500000 1847.000000,907.750000 
z"/>
<path fill="#434347" opacity="1.000000" stroke="none" 
	d="
M1847.000000,879.750000 
	C1846.866089,879.705261 1846.732056,879.410522 1846.799072,879.057861 
	C1847.000000,879.000000 1847.000000,879.500000 1847.000000,879.750000 
z"/>
<path fill="#434347" opacity="1.000000" stroke="none" 
	d="
M1845.931396,1188.529541 
	C1845.987671,1188.267944 1846.188354,1188.207642 1846.694580,1188.073730 
	C1847.000000,1188.000000 1847.000000,1188.500000 1847.000000,1188.750000 
	C1846.642700,1189.079346 1846.334595,1188.989624 1845.931396,1188.529541 
z"/>
<path fill="#434347" opacity="1.000000" stroke="none" 
	d="
M1847.000000,229.750000 
	C1846.796631,229.952301 1846.593262,229.904602 1846.088623,229.764374 
	C1845.936279,229.355865 1846.173706,229.134567 1846.749756,229.003967 
	C1847.000000,229.000000 1847.000000,229.500000 1847.000000,229.750000 
z"/>
<path fill="#434347" opacity="1.000000" stroke="none" 
	d="
M1847.000000,160.750000 
	C1846.796631,160.952301 1846.593262,160.904602 1846.088623,160.764374 
	C1845.936279,160.355865 1846.173706,160.134567 1846.749756,160.003967 
	C1847.000000,160.000000 1847.000000,160.500000 1847.000000,160.750000 
z"/>
<path fill="#FEFEFE" opacity="1.000000" stroke="none" 
	d="
M1256.096191,399.094940 
	C1257.092407,410.681915 1258.269775,421.819672 1258.960571,432.987518 
	C1260.996460,465.899139 1255.293823,497.510345 1241.651001,527.498535 
	C1234.820679,542.512512 1225.283691,555.836853 1214.381226,568.341309 
	C1196.969604,588.311462 1175.836914,603.155396 1152.386597,614.777039 
	C1131.429077,625.163086 1109.097778,631.852234 1086.078857,635.877563 
	C1074.777954,637.853760 1063.308838,639.212952 1051.858765,639.903992 
	C1037.438354,640.774231 1022.960388,640.821960 1008.505249,640.919189 
	C1003.138672,640.955322 997.766357,640.127625 991.912476,639.654724 
	C991.912476,706.101196 991.912476,771.689453 991.912476,837.640503 
	C894.112366,837.640503 796.747620,837.640503 699.136475,837.640503 
	C699.136475,641.237732 699.136475,444.982727 699.136475,248.317520 
	C700.610046,248.220291 702.047485,248.042419 703.484863,248.042480 
	C807.312561,248.046814 911.140320,247.983612 1014.967773,248.167679 
	C1031.199219,248.196457 1047.469116,248.840088 1063.649536,250.111252 
	C1088.828247,252.089294 1113.784058,255.478043 1137.860596,263.870575 
	C1161.723022,272.188477 1183.034424,284.471161 1201.948364,301.305573 
	C1226.268188,322.951447 1242.171509,349.689911 1251.662720,380.507782 
	C1253.491577,386.446014 1254.609253,392.603241 1256.096191,399.094940 
M1074.403076,283.999207 
	C961.992920,277.052979 849.492676,283.456573 737.033691,280.436890 
	C737.033691,456.320190 737.033691,630.915833 737.033691,805.738037 
	C809.351929,805.738037 881.407898,805.738037 954.057983,805.738037 
	C954.057983,668.742004 954.057983,532.037231 954.057983,394.614594 
	C960.973145,395.157440 967.328003,395.177490 973.498596,396.254059 
	C982.524658,397.828796 988.836487,403.221497 990.107727,412.532562 
	C991.289795,421.190094 991.743225,430.005341 991.766968,438.753204 
	C991.910400,491.583466 991.839722,544.414246 991.831421,597.244873 
	C991.831177,598.906311 992.152283,600.728149 991.594177,602.198181 
	C990.118286,606.084900 991.854675,606.911316 995.253845,606.855042 
	C1013.532532,606.552551 1031.818237,606.511963 1050.089722,605.978271 
	C1067.324707,605.474976 1084.249268,602.422241 1100.859863,597.958008 
	C1133.914429,589.074524 1163.593262,574.475586 1186.085205,547.510437 
	C1207.720093,521.572754 1217.616455,491.259369 1219.997314,458.183350 
	C1220.790283,447.166351 1220.276245,436.031830 1219.954102,424.962860 
	C1219.270142,401.465240 1213.172241,379.365875 1201.902100,358.739868 
	C1185.438354,328.609497 1160.019897,309.091614 1128.364624,297.048950 
	C1111.216431,290.525238 1093.368896,286.835388 1074.403076,283.999207 
z"/>
<path fill="#0098DA" opacity="1.000000" stroke="none" 
	d="
M783.000000,944.070190 
	C697.339966,944.070068 612.179871,944.070923 527.019836,944.067810 
	C519.940552,944.067566 519.934387,944.054932 519.927185,936.992432 
	C519.921814,931.659546 520.033386,926.324219 519.901306,920.994751 
	C519.826416,917.972900 521.047607,916.705627 524.031372,916.917236 
	C525.523438,917.022949 527.029724,916.922668 528.529602,916.922668 
	C789.509338,916.922058 1050.489014,916.922119 1311.468750,916.922180 
	C1312.468750,916.922180 1313.484985,917.040833 1314.465820,916.903809 
	C1318.850586,916.291565 1320.392334,918.088135 1320.134033,922.508606 
	C1319.794434,928.321899 1319.946167,934.171753 1320.079956,940.001465 
	C1320.149536,943.027710 1318.942017,944.273743 1315.956421,944.078735 
	C1314.131348,943.959595 1312.291504,944.069397 1310.458374,944.069397 
	C1134.805542,944.070068 959.152771,944.070068 783.000000,944.070190 
z"/>
<path fill="#434347" opacity="1.000000" stroke="none" 
	d="
M1846.302612,309.405243 
	C1846.515503,309.982361 1846.494141,310.029785 1846.500488,310.039429 
	C1846.327026,311.054291 1846.147095,312.059509 1845.905762,313.568665 
	C1845.690430,312.168793 1845.536743,310.264984 1845.535156,308.013367 
	C1845.821533,308.053070 1845.955688,308.440613 1846.302612,309.405243 
z"/>
<path fill="#434347" opacity="1.000000" stroke="none" 
	d="
M1845.639893,937.778442 
	C1845.690674,937.895630 1845.577271,938.212402 1845.341431,938.746155 
	C1845.304688,938.634705 1845.390259,938.306396 1845.639893,937.778442 
z"/>
<path fill="#52658C" opacity="1.000000" stroke="none" 
	d="
M1074.851318,284.031494 
	C1093.368896,286.835388 1111.216431,290.525238 1128.364624,297.048950 
	C1160.019897,309.091614 1185.438354,328.609497 1201.902100,358.739868 
	C1213.172241,379.365875 1219.270142,401.465240 1219.954102,424.962860 
	C1220.276245,436.031830 1220.790283,447.166351 1219.997314,458.183350 
	C1217.616455,491.259369 1207.720093,521.572754 1186.085205,547.510437 
	C1163.593262,574.475586 1133.914429,589.074524 1100.859863,597.958008 
	C1084.249268,602.422241 1067.324707,605.474976 1050.089722,605.978271 
	C1031.818237,606.511963 1013.532532,606.552551 995.253845,606.855042 
	C991.854675,606.911316 990.118286,606.084900 991.594177,602.198181 
	C992.152283,600.728149 991.831177,598.906311 991.831421,597.244873 
	C991.839722,544.414246 991.910400,491.583466 991.766968,438.753204 
	C991.743225,430.005341 991.289795,421.190094 990.107727,412.532562 
	C988.836487,403.221497 982.524658,397.828796 973.498596,396.254059 
	C967.328003,395.177490 960.973145,395.157440 954.057983,394.614594 
	C954.057983,532.037231 954.057983,668.742004 954.057983,805.738037 
	C881.407898,805.738037 809.351929,805.738037 737.033691,805.738037 
	C737.033691,630.915833 737.033691,456.320190 737.033691,280.436890 
	C849.492676,283.456573 961.992920,277.052979 1074.851318,284.031494 
z"/>
</svg>